<svg xmlns="http://www.w3.org/2000/svg" xmlns:xlink="http://www.w3.org/1999/xlink" aria-hidden="true" focusable="false" style="-ms-transform: rotate(360deg); -webkit-transform: rotate(360deg); transform: rotate(360deg);" preserveAspectRatio="xMidYMid meet" viewBox="0 0 24 24"><path d="M24,4.455C24,1.996 22.004,0 19.545,0L4.455,0C1.996,0 0,1.996 0,4.455L0,19.545C0,22.004 1.996,24 4.455,24L19.545,24C22.004,24 24,22.004 24,19.545L24,4.455ZM16.725,2.86L16.754,2.886C17.074,3.179 17.096,3.677 16.803,3.998C16.787,4.015 16.771,4.031 16.754,4.047L15.465,5.226L18.281,5.226C20.263,5.226 21.869,6.833 21.869,8.815L21.869,16.89C21.869,18.872 20.263,20.479 18.281,20.479L17.809,20.479C17.705,20.991 17.253,21.376 16.71,21.376C16.168,21.376 15.715,20.991 15.611,20.479L8.389,20.479C8.285,20.991 7.832,21.376 7.29,21.376C6.747,21.376 6.295,20.991 6.191,20.479L5.719,20.479C3.737,20.479 2.131,18.872 2.131,16.89L2.131,8.815C2.131,6.833 3.737,5.226 5.719,5.226L8.534,5.226L7.246,4.047C6.926,3.753 6.904,3.256 7.197,2.935L7.275,2.86C7.618,2.546 8.144,2.546 8.487,2.86L11.073,5.226L12.927,5.226L15.513,2.86C15.856,2.546 16.382,2.546 16.725,2.86ZM18.65,7.02L5.35,7.02C4.591,7.02 3.971,7.627 3.927,8.393L3.925,8.478L3.925,17.226C3.925,18.003 4.518,18.637 5.266,18.682L5.35,18.684L18.65,18.684C19.409,18.684 20.029,18.077 20.073,17.312L20.075,17.226L20.075,8.478C20.075,7.702 19.482,7.067 18.734,7.023L18.65,7.02ZM11.821,14.149L12.326,14.904C12.624,15.33 12.834,15.544 13.009,15.605C13.179,15.665 13.406,15.551 13.756,15.086L13.815,15.005L14.543,15.531C13.953,16.348 13.347,16.673 12.714,16.453C12.393,16.341 12.133,16.126 11.839,15.755L11.805,15.711L11.802,15.715C10.856,16.775 9.828,16.726 8.99,15.502L8.932,15.414L9.685,14.926C10.241,15.785 10.669,15.797 11.331,14.875L11.447,14.707L11.821,14.149ZM9.392,10.161L10.173,12.028L5.719,12.854L5.719,11.251L9.392,10.161ZM14.576,10.161L18.248,11.251L18.248,12.854L13.794,12.028L14.576,10.161Z" fill="#EF779B"/></svg>