<?xml version="1.0" encoding="UTF-8" standalone="no"?>
<!DOCTYPE svg PUBLIC "-//W3C//DTD SVG 1.1//EN" "http://www.w3.org/Graphics/SVG/1.1/DTD/svg11.dtd">
<svg width="100%" height="100%" viewBox="0 0 24 24" version="1.1" xmlns="http://www.w3.org/2000/svg" xmlns:xlink="http://www.w3.org/1999/xlink" xml:space="preserve" xmlns:serif="http://www.serif.com/" style="fill-rule:evenodd;clip-rule:evenodd;stroke-linejoin:round;stroke-miterlimit:2;">
    <g transform="matrix(0.140845,0,0,0.140845,-10.4647,-57.8167)">
        <path d="M244.5,496.1L244.5,551.2C244.5,562.2 235.5,573.3 226.6,577.8C221.6,580.3 216.3,581 210.7,581C175.8,580.9 140.8,580.9 105.9,580.9C88.6,580.9 74.2,565.1 74.3,549.3C74.5,513.3 74.4,477.3 74.4,441.2C74.4,429.5 82.7,418.4 92.9,413.6C97.6,411.4 102.5,410.5 107.7,410.5C143,410.6 178.3,410.6 213.6,410.6C225.7,410.6 236.6,418.8 241.6,429C243.9,433.7 244.7,438.6 244.7,443.8C244.4,461.3 244.5,478.7 244.5,496.1ZM181.8,477.1C182,477.1 182.6,477.2 183.1,477.2C183.6,477.3 184.1,477.3 184.5,477.6C193,482.1 199.4,488.9 201.4,498.3C203.8,509.8 201.5,520.6 193.6,529.8C180.9,544.6 157.4,548.2 140.2,539.2C121.5,529.5 110.2,504.7 118.4,483.3C122.6,472.3 129.1,463.5 139.8,458.1C142.6,456.7 145.6,455.4 148.2,453.6C151.7,451.2 152.3,447.3 150.2,443.8C148.4,440.7 144.2,439.3 140.9,440.6C121.8,448.1 109.2,461.4 102.8,481.1C98.1,495.7 99.8,509.6 105.7,523.3C109.9,532.9 116.3,540.8 124.8,547.3C131.8,552.6 139.4,556.2 147.7,558.1C161,561.1 174,559.3 186.5,553.7C208.7,543.8 223.7,518.2 215.7,492.4C211.4,478.6 202.3,469.2 189.3,463.5C185.1,461.7 180.5,460.8 175.7,459.5C175.3,456.4 174.6,453 174.4,449.6C174.2,445.3 178.4,442.7 182.3,444.5C184.3,445.4 186.2,446.7 188.1,447.8C193.4,450.9 198.3,449.7 200.3,444.6C201.4,441.7 200.1,437.2 196.8,435.2C193.2,433 189.2,431.4 185.3,429.7C176.3,425.7 164.6,432.2 160,440.3C156.9,445.7 157.7,451.6 159.2,457.3C159.7,459.4 161.2,461.7 158.1,463.1C157.444,463.406 156.788,463.693 156.131,463.978L155.569,464.222C154.913,464.507 154.256,464.794 153.6,465.1C140.1,470.9 132,488.7 135.9,503.3C139.3,515.9 154.4,526.5 167.5,522C175.8,519.2 186.5,509.2 185.3,498.5C184.7,491.5 183.1,484.4 181.8,477.1ZM165.5,477.1C167,484.2 168.9,491.3 170,498.5C170.7,502.9 167.4,506.3 162.7,507.7C159.3,508.7 154.6,506.7 152.7,503.1C147.2,492.7 152.8,479.9 165.5,477.1Z" style="fill:rgb(224,0,0);fill-rule:nonzero;"/>
    </g>
</svg>
