<?xml version="1.0" encoding="UTF-8" standalone="no"?>
<!DOCTYPE svg PUBLIC "-//W3C//DTD SVG 1.1//EN" "http://www.w3.org/Graphics/SVG/1.1/DTD/svg11.dtd">
<svg width="100%" height="100%" viewBox="0 0 24 24" version="1.1" xmlns="http://www.w3.org/2000/svg" xmlns:xlink="http://www.w3.org/1999/xlink" xml:space="preserve" xmlns:serif="http://www.serif.com/" style="fill-rule:evenodd;clip-rule:evenodd;stroke-linejoin:round;stroke-miterlimit:2;">
    <g transform="matrix(0.0938414,0,0,0.0938414,-6.5806,-34.7659)">
        <path d="M272.4,395.4L268.3,370.4C268.3,370.4 265.6,395.7 235.8,422.8C222.1,435.3 197.9,449 197.9,449L254.8,547.5C254.8,547.5 260.2,563.8 253,579.1C244.6,597 227.7,608 195.2,608.9C166.3,609.7 146.4,592.6 142.8,569.2C139.2,546 154.3,528.1 171.7,521.3C188,515 215.1,517.7 215.1,517.7L151.9,411.1L152.8,400.3C152.8,400.3 173.1,402.9 208.8,395.8C225.1,392.5 238.8,387.1 249,382.1C233.4,375.3 216.1,371.5 198,371.5C127.7,371.5 70.6,428.5 70.6,498.9C70.6,569.2 127.6,626.3 198,626.3C268.3,626.3 325.4,569.3 325.4,498.9C325.2,456.2 304.4,418.6 272.4,395.4Z" style="fill:rgb(255,220,0);fill-rule:nonzero;"/>
    </g>
    <g transform="matrix(0.0938414,0,0,0.0938414,-6.5806,-34.7659)">
        <path d="M268.3,370.4C268.3,370.4 244.8,388.5 208.7,395.7C173,402.8 152.7,400.2 152.7,400.2L151.8,411L215,517.7C215,517.7 187.9,515 171.6,521.3C154.2,528 139.1,546 142.7,569.2C146.3,592.7 166.2,609.7 195.1,608.9C227.6,608 244.5,597 252.9,579.1C260.1,563.7 254.7,547.5 254.7,547.5L197.8,449C197.8,449 222,435.3 235.7,422.8C265.6,395.7 268.3,370.4 268.3,370.4Z" style="fill:rgb(10,192,148);fill-rule:nonzero;"/>
    </g>
</svg>
