<?xml version="1.0" encoding="UTF-8" standalone="no"?>
<!DOCTYPE svg PUBLIC "-//W3C//DTD SVG 1.1//EN" "http://www.w3.org/Graphics/SVG/1.1/DTD/svg11.dtd">
<svg width="100%" height="100%" viewBox="0 0 1024 1024" version="1.1" xmlns="http://www.w3.org/2000/svg" xmlns:xlink="http://www.w3.org/1999/xlink" xml:space="preserve" xmlns:serif="http://www.serif.com/" style="fill-rule:evenodd;clip-rule:evenodd;stroke-linejoin:round;stroke-miterlimit:2;">
    <g transform="matrix(1.05955,0,0,1.05955,-30.1401,-22.489)">
        <path d="M851.4,590.193C829.204,523.96 761.015,499.771 745.488,498.33C729.965,496.888 715.895,488.39 726.193,470.825C736.495,453.259 755.497,402.141 718.945,366.144C682.381,330.004 602.433,343.682 545.851,367.01C489.417,390.337 492.461,374.065 494.201,358.085C496.091,341.237 526.556,247.065 433.41,235.69C311.395,220.86 154.85,370.754 99.572,457.15C16,587.607 29.208,675.873 29.208,675.873L29.788,675.873C39.797,797.692 220.575,894.742 442.116,894.742C632.616,894.742 793.077,822.889 840.518,725.264C840.518,725.264 840.661,724.831 841.093,724.108C846.031,713.602 849.803,702.94 852.128,691.854C858.796,665.649 863.883,627.639 851.4,590.194L851.4,590.193ZM414.7,841.463C256.99,841.463 129.026,757.368 129.026,653.695C129.026,550.024 256.846,465.935 414.7,465.935C572.405,465.935 700.373,550.024 700.373,653.695C700.373,757.51 572.405,841.463 414.7,841.463Z" style="fill:rgb(231,31,25);fill-rule:nonzero;"/>
    </g>
    <g transform="matrix(1.05955,0,0,1.05955,-30.1401,-22.489)">
        <path d="M803.096,425.327C805.992,426.625 809.041,427.196 812.09,427.196C821.083,427.196 829.79,421.868 833.413,413.084C839.363,399.12 842.406,384.291 842.406,368.879C842.406,306.391 791.198,255.558 728.225,255.558C712.846,255.558 697.905,258.58 683.829,264.484C672.074,269.38 666.566,282.916 671.494,294.724C676.427,306.386 690.066,311.858 701.959,306.962C710.378,303.502 719.227,301.632 728.369,301.632C765.8,301.632 796.121,331.873 796.121,368.879C796.121,377.947 794.386,386.736 790.752,395.081C789.507,397.95 788.865,401.043 788.865,404.171C788.865,413.436 794.505,421.823 803.087,425.317L803.097,425.327L803.096,425.327Z" style="fill:rgb(245,170,21);fill-rule:nonzero;"/>
    </g>
    <g transform="matrix(1.05955,0,0,1.05955,-30.1401,-22.489)">
        <path d="M726.922,114.157C700.953,114.157 675.272,117.901 650.607,125.099C632.184,130.571 621.739,149.721 627.107,168.009C632.616,186.299 651.911,196.666 670.344,191.338C688.725,185.981 707.776,183.266 726.922,183.274C836.175,183.274 925.111,271.545 925.111,379.97C925.111,399.406 922.206,418.699 916.692,437.13C911.184,455.419 921.482,474.718 939.904,480.183C943.246,481.197 946.721,481.625 950.063,481.625C965.006,481.625 978.788,471.977 983.433,457.145C990.98,432.239 994.895,406.319 994.895,379.97C994.752,233.382 874.617,114.157 726.922,114.157Z" style="fill:rgb(245,170,21);fill-rule:nonzero;"/>
    </g>
    <g transform="matrix(1.05955,0,0,1.05955,-30.1401,-22.489)">
        <path d="M388.294,534.47C304.143,534.47 235.954,593.648 235.954,666.804C235.954,739.945 304.143,799.132 388.294,799.132C472.442,799.132 540.631,739.95 540.631,666.804C540.631,593.654 472.441,534.47 388.294,534.47ZM338.53,752.763C309.076,752.763 285.14,729.008 285.14,699.776C285.14,670.548 309.081,646.787 338.53,646.787C367.983,646.787 391.92,670.547 391.92,699.776C391.92,729.003 367.983,752.763 338.53,752.763ZM438.35,657.298C431.968,668.384 419.054,672.994 409.624,667.517C400.194,662.194 397.874,648.8 404.254,637.714C410.64,626.624 423.551,622.014 432.979,627.49C442.409,632.962 444.734,646.354 438.349,657.298L438.35,657.298Z" style="fill:rgb(4,0,0);fill-rule:nonzero;"/>
    </g>
</svg>
